<svg width="24" height="27" viewBox="0 0 24 27" fill="none" xmlns="http://www.w3.org/2000/svg">
<g clip-path="url(#clip0_321_505)">
<path d="M17.25 2.16821C16.2243 2.17899 15.2152 2.45059 14.3035 2.96124C13.3918 3.47189 12.6029 4.20741 12 5.10885C11.397 4.20741 10.6081 3.47189 9.69644 2.96124C8.78476 2.45059 7.77565 2.17899 6.74996 2.16821C4.89173 2.24882 3.13848 3.12545 1.87358 4.60639C0.608672 6.08734 -0.0649657 8.05212 -4.03235e-05 10.0711C-4.03235e-05 15.016 4.67396 20.3096 8.59996 23.8803C9.55329 24.7511 10.7589 25.2285 12.0045 25.2285C13.25 25.2285 14.4556 24.7511 15.409 23.8803C19.331 20.3096 24.009 15.016 24.009 10.0711C24.0738 8.0505 23.399 6.08429 22.1322 4.60306C20.8653 3.12183 19.1098 2.24631 17.25 2.16821ZM13.477 21.3829C13.0634 21.7611 12.5401 21.9686 11.9995 21.9686C11.4588 21.9686 10.9355 21.7611 10.522 21.3829C5.74196 17.0289 2.99996 12.9064 2.99996 10.0711C2.9362 8.9166 3.29424 7.78137 3.99634 6.91189C4.69844 6.04241 5.68793 5.50888 6.74996 5.42714C7.81199 5.50888 8.80148 6.04241 9.50358 6.91189C10.2057 7.78137 10.5637 8.9166 10.5 10.0711C10.5 10.5033 10.658 10.9177 10.9393 11.2233C11.2206 11.5289 11.6021 11.7006 12 11.7006C12.3978 11.7006 12.7793 11.5289 13.0606 11.2233C13.3419 10.9177 13.5 10.5033 13.5 10.0711C13.4362 8.9166 13.7942 7.78137 14.4963 6.91189C15.1984 6.04241 16.1879 5.50888 17.25 5.42714C18.312 5.50888 19.3015 6.04241 20.0036 6.91189C20.7057 7.78137 21.0637 8.9166 21 10.0711C21 12.9064 18.258 17.0289 13.477 21.3829Z" fill="white"/>
</g>
<defs>
<clipPath id="clip0_321_505">
<rect width="24" height="26.0714" fill="white" transform="translate(0 0.157745)"/>
</clipPath>
</defs>
</svg>
