<svg width="17" height="16" viewBox="0 0 17 16" fill="none" xmlns="http://www.w3.org/2000/svg">
                        <path d="M0.974239 8.26684L3.39182 10.0002L2.47368 12.7915C2.32531 13.2244 2.32343 13.6928 2.46832 14.1269C2.61322 14.561 2.89713 14.9374 3.27773 15.2002C3.65181 15.4714 4.10513 15.6166 4.57015 15.6144C5.03517 15.6121 5.48699 15.4624 5.85829 15.1875L8.22222 13.4795L10.5868 15.1855C10.9602 15.4551 11.4111 15.6016 11.8746 15.6038C12.3382 15.606 12.7905 15.4639 13.1665 15.1978C13.5426 14.9318 13.823 14.5555 13.9675 14.1232C14.1121 13.6908 14.1132 13.2246 13.9708 12.7915L13.0526 10.0002L15.4702 8.26684C15.8431 7.99918 16.1203 7.62267 16.2622 7.1911C16.4042 6.75953 16.4035 6.29496 16.2604 5.86377C16.1173 5.43257 15.8391 5.05679 15.4655 4.79011C15.0918 4.52343 14.6419 4.37949 14.1799 4.37884H11.2102L10.3091 1.62151C10.1674 1.18748 9.8889 0.808849 9.51383 0.540217C9.13877 0.271584 8.68649 0.126831 8.22222 0.126831C7.75794 0.126831 7.30566 0.271584 6.9306 0.540217C6.55554 0.808849 6.27707 1.18748 6.13536 1.62151L5.2342 4.37884H2.26724C1.80528 4.37949 1.35534 4.52343 0.981696 4.79011C0.60805 5.05679 0.329806 5.43257 0.186708 5.86377C0.0436095 6.29496 0.0429762 6.75953 0.184898 7.1911C0.32682 7.62267 0.604038 7.99918 0.976956 8.26684H0.974239Z" fill="#FFE605"/>
                        </svg>