<svg width="18" height="16" viewBox="0 0 18 16" fill="none" xmlns="http://www.w3.org/2000/svg">
<path d="M5.58393 15.6249C5.06564 15.6226 4.56141 15.4592 4.14357 15.1582C3.71656 14.8633 3.39793 14.441 3.23507 13.954C3.07222 13.4671 3.07384 12.9415 3.23969 12.4555L4.03423 10.0429L1.94262 8.54153C1.52324 8.24073 1.21152 7.81742 1.05206 7.33216C0.892597 6.8469 0.893564 6.32457 1.05482 5.83988C1.21608 5.3552 1.52937 4.933 1.94986 4.6337C2.37035 4.33439 2.8765 4.17333 3.39589 4.17353H5.95607L6.73364 1.79353C6.89322 1.30616 7.20625 0.88108 7.62765 0.579519C8.04905 0.277959 8.55707 0.115479 9.07855 0.115479C9.60003 0.115479 10.108 0.277959 10.5294 0.579519C10.9508 0.88108 11.2639 1.30616 11.4235 1.79353L12.2037 4.17353H14.7639C15.2833 4.17347 15.7893 4.33464 16.2097 4.63399C16.6301 4.93334 16.9432 5.35554 17.1044 5.8402C17.2656 6.32485 17.2665 6.84713 17.107 7.33232C16.9475 7.81751 16.6358 8.24077 16.2165 8.54153L14.1256 10.0429L14.9201 12.4555C15.0803 12.9422 15.0791 13.4662 14.9168 13.9522C14.7544 14.4382 14.4392 14.8611 14.0165 15.1601C13.5938 15.4591 13.0854 15.6187 12.5644 15.6161C12.0435 15.6135 11.5367 15.4487 11.1172 15.1455L9.07991 13.6749L7.04262 15.1462C6.62108 15.4549 6.1098 15.6226 5.58393 15.6249ZM3.39589 6.17353C3.30625 6.17352 3.2189 6.20133 3.14633 6.25298C3.07376 6.30462 3.01967 6.37747 2.9918 6.46111C2.96393 6.54474 2.9637 6.63488 2.99115 6.71865C3.01859 6.80242 3.07231 6.87553 3.14462 6.92753L5.83112 8.85487C6.00411 8.97904 6.1328 9.15361 6.19888 9.35373C6.26496 9.55386 6.26507 9.76934 6.19919 9.96953L5.18055 13.0695C5.15228 13.1536 5.15199 13.2444 5.17972 13.3286C5.20745 13.4129 5.26176 13.4863 5.3348 13.5383C5.40784 13.5902 5.49582 13.618 5.58602 13.6176C5.67621 13.6173 5.76396 13.5888 5.83655 13.5362L8.47755 11.6289C8.65251 11.5025 8.86404 11.4343 9.08126 11.4343C9.29849 11.4343 9.51002 11.5025 9.68498 11.6289L12.326 13.5355C12.3985 13.5886 12.4863 13.6175 12.5768 13.6181C12.6672 13.6187 12.7554 13.5909 12.8287 13.5388C12.9019 13.4868 12.9562 13.4131 12.9838 13.3285C13.0114 13.244 13.0108 13.153 12.982 13.0689L11.9633 9.96887C11.8975 9.76868 11.8976 9.55319 11.9636 9.35307C12.0297 9.15294 12.1584 8.97837 12.3314 8.8542L15.0172 6.92687C15.0895 6.8749 15.1432 6.80185 15.1707 6.71814C15.1981 6.63444 15.1979 6.54436 15.1702 6.46076C15.1424 6.37715 15.0884 6.3043 15.0159 6.2526C14.9435 6.2009 14.8562 6.173 14.7666 6.17287H11.4567C11.241 6.17281 11.0308 6.10552 10.8566 5.98067C10.6823 5.85583 10.5529 5.67988 10.487 5.4782L9.48736 2.4042C9.45983 2.32007 9.40581 2.24668 9.33307 2.19462C9.26033 2.14256 9.17264 2.11451 9.08262 2.11451C8.99261 2.11451 8.90491 2.14256 8.83218 2.19462C8.75944 2.24668 8.70542 2.32007 8.67788 2.4042L7.67079 5.47887C7.60502 5.68023 7.47592 5.85594 7.30205 5.98075C7.12818 6.10556 6.91847 6.17306 6.70308 6.17353H3.39589Z" fill="#B0B4B7"/>
</svg>
